# Blender v2.93.0 OBJ File: 'EVA3.blend'
# www.blender.org
mtllib background2.mtl
o 立方體_立方體.001
v -100.000000 -55.000000 100.000000
v -100.000000 -35.000000 100.000000
v -100.000000 -55.000000 -100.000000
v -100.000000 -35.000000 -100.000000
v 100.000000 -55.000000 100.000000
v 100.000000 -35.000000 100.000000
v 100.000000 -55.000000 -100.000000
v 100.000000 -35.000000 -100.000000
vt 0.375000 0.000000
vt 0.625000 0.000000
vt 0.375000 0.250000
vt 0.625000 0.500000
vt 0.375000 0.500000
vt 0.375000 0.750000
vt 0.625000 1.000000
vt 0.375000 1.000000
vt 0.125000 0.500000
vt 0.875000 0.500000
vt 0.875000 0.750000
vt 0.625000 0.750000
vt 0.625000 0.250000
vt 0.125000 0.750000
vn -1.0000 0.0000 0.0000
vn 0.0000 0.0000 -1.0000
vn 1.0000 0.0000 0.0000
vn 0.0000 0.0000 1.0000
vn 0.0000 -1.0000 0.0000
vn 0.0000 1.0000 0.0000
usemtl Material.001
s off
f 1/1/1 2/2/1 3/3/1
f 3/3/2 8/4/2 7/5/2
f 7/5/3 8/4/3 5/6/3
f 5/6/4 2/7/4 1/8/4
f 3/9/5 7/5/5 5/6/5
f 8/4/6 4/10/6 2/11/6
f 5/6/3 8/4/3 6/12/3
f 2/7/4 5/6/4 6/12/4
f 3/3/1 2/2/1 4/13/1
f 5/6/5 1/14/5 3/9/5
f 8/4/2 3/3/2 4/13/2
f 2/11/6 6/12/6 8/4/6
o 立方體.001_立方體.002
v 50.000000 -100.000000 100.000000
v 50.000000 100.000000 100.000000
v 50.000000 -100.000000 -100.000000
v 50.000000 100.000000 -100.000000
v 70.000000 -100.000000 100.000000
v 70.000000 100.000000 100.000000
v 70.000000 -100.000000 -100.000000
v 70.000000 100.000000 -100.000000
vt 0.375000 0.000000
vt 0.625000 0.000000
vt 0.375000 0.250000
vt 0.625000 0.500000
vt 0.375000 0.500000
vt 0.375000 0.750000
vt 0.625000 1.000000
vt 0.375000 1.000000
vt 0.125000 0.500000
vt 0.875000 0.500000
vt 0.875000 0.750000
vt 0.625000 0.750000
vt 0.625000 0.250000
vt 0.125000 0.750000
vn -1.0000 0.0000 0.0000
vn 0.0000 0.0000 -1.0000
vn 1.0000 0.0000 0.0000
vn 0.0000 0.0000 1.0000
vn 0.0000 -1.0000 0.0000
vn 0.0000 1.0000 0.0000
usemtl Material.002
s off
f 9/15/7 10/16/7 11/17/7
f 11/17/8 16/18/8 15/19/8
f 15/19/9 16/18/9 13/20/9
f 13/20/10 10/21/10 9/22/10
f 11/23/11 15/19/11 13/20/11
f 16/18/12 12/24/12 10/25/12
f 13/20/9 16/18/9 14/26/9
f 10/21/10 13/20/10 14/26/10
f 11/17/7 10/16/7 12/27/7
f 13/20/11 9/28/11 11/23/11
f 16/18/8 11/17/8 12/27/8
f 10/25/12 14/26/12 16/18/12
o 立方體.002_立方體.003
v -100.000000 84.707008 100.000000
v -100.000000 104.707008 100.000000
v -100.000000 84.707008 -100.000000
v -100.000000 104.707008 -100.000000
v 100.000000 84.707008 100.000000
v 100.000000 104.707008 100.000000
v 100.000000 84.707008 -100.000000
v 100.000000 104.707008 -100.000000
vt 0.375000 0.000000
vt 0.625000 0.000000
vt 0.375000 0.250000
vt 0.625000 0.500000
vt 0.375000 0.500000
vt 0.375000 0.750000
vt 0.625000 1.000000
vt 0.375000 1.000000
vt 0.125000 0.500000
vt 0.875000 0.500000
vt 0.875000 0.750000
vt 0.625000 0.750000
vt 0.625000 0.250000
vt 0.125000 0.750000
vn -1.0000 0.0000 0.0000
vn 0.0000 0.0000 -1.0000
vn 1.0000 0.0000 0.0000
vn 0.0000 0.0000 1.0000
vn 0.0000 -1.0000 0.0000
vn 0.0000 1.0000 0.0000
usemtl Material.003
s off
f 17/29/13 18/30/13 19/31/13
f 19/31/14 24/32/14 23/33/14
f 23/33/15 24/32/15 21/34/15
f 21/34/16 18/35/16 17/36/16
f 19/37/17 23/33/17 21/34/17
f 24/32/18 20/38/18 18/39/18
f 21/34/15 24/32/15 22/40/15
f 18/35/16 21/34/16 22/40/16
f 19/31/13 18/30/13 20/41/13
f 21/34/17 17/42/17 19/37/17
f 24/32/14 19/31/14 20/41/14
f 18/39/18 22/40/18 24/32/18
o 立方體.003_立方體.004
v -70.000000 -100.000000 100.000000
v -70.000000 100.000000 100.000000
v -70.000000 -100.000000 -100.000000
v -70.000000 100.000000 -100.000000
v -50.000000 -100.000000 100.000000
v -50.000000 100.000000 100.000000
v -50.000000 -100.000000 -100.000000
v -50.000000 100.000000 -100.000000
vt 0.375000 0.000000
vt 0.625000 0.000000
vt 0.375000 0.250000
vt 0.625000 0.500000
vt 0.375000 0.500000
vt 0.375000 0.750000
vt 0.625000 1.000000
vt 0.375000 1.000000
vt 0.125000 0.500000
vt 0.875000 0.500000
vt 0.875000 0.750000
vt 0.625000 0.750000
vt 0.625000 0.250000
vt 0.125000 0.750000
vn -1.0000 0.0000 0.0000
vn 0.0000 0.0000 -1.0000
vn 1.0000 0.0000 0.0000
vn 0.0000 0.0000 1.0000
vn 0.0000 -1.0000 0.0000
vn 0.0000 1.0000 0.0000
usemtl Material.004
s off
f 25/43/19 26/44/19 27/45/19
f 27/45/20 32/46/20 31/47/20
f 31/47/21 32/46/21 29/48/21
f 29/48/22 26/49/22 25/50/22
f 27/51/23 31/47/23 29/48/23
f 32/46/24 28/52/24 26/53/24
f 29/48/21 32/46/21 30/54/21
f 26/49/22 29/48/22 30/54/22
f 27/45/19 26/44/19 28/55/19
f 29/48/23 25/56/23 27/51/23
f 32/46/20 27/45/20 28/55/20
f 26/53/24 30/54/24 32/46/24
o 立方體.004_立方體.005
v -100.000000 -100.000000 -50.000000
v -100.000000 100.000000 -50.000000
v -100.000000 -100.000000 -70.000000
v -100.000000 100.000000 -70.000000
v 100.000000 -100.000000 -50.000000
v 100.000000 100.000000 -50.000000
v 100.000000 -100.000000 -70.000000
v 100.000000 100.000000 -70.000000
vt 0.375000 0.000000
vt 0.625000 0.000000
vt 0.375000 0.250000
vt 0.625000 0.500000
vt 0.375000 0.500000
vt 0.375000 0.750000
vt 0.625000 1.000000
vt 0.375000 1.000000
vt 0.125000 0.500000
vt 0.875000 0.500000
vt 0.875000 0.750000
vt 0.625000 0.750000
vt 0.625000 0.250000
vt 0.125000 0.750000
vn -1.0000 0.0000 0.0000
vn 0.0000 0.0000 -1.0000
vn 1.0000 0.0000 0.0000
vn 0.0000 0.0000 1.0000
vn 0.0000 -1.0000 0.0000
vn 0.0000 1.0000 0.0000
usemtl Material.005
s off
f 33/57/25 34/58/25 35/59/25
f 35/59/26 40/60/26 39/61/26
f 39/61/27 40/60/27 37/62/27
f 37/62/28 34/63/28 33/64/28
f 35/65/29 39/61/29 37/62/29
f 40/60/30 36/66/30 34/67/30
f 37/62/27 40/60/27 38/68/27
f 34/63/28 37/62/28 38/68/28
f 35/59/25 34/58/25 36/69/25
f 37/62/29 33/70/29 35/65/29
f 40/60/26 35/59/26 36/69/26
f 34/67/30 38/68/30 40/60/30
o 立方體.005_立方體.006
v -100.000000 -100.000000 70.000000
v -100.000000 100.000000 70.000000
v -100.000000 -100.000000 50.000000
v -100.000000 100.000000 50.000000
v 100.000000 -100.000000 70.000000
v 100.000000 100.000000 70.000000
v 100.000000 -100.000000 50.000000
v 100.000000 100.000000 50.000000
vt 0.375000 0.000000
vt 0.625000 0.000000
vt 0.375000 0.250000
vt 0.625000 0.500000
vt 0.375000 0.500000
vt 0.375000 0.750000
vt 0.625000 1.000000
vt 0.375000 1.000000
vt 0.125000 0.500000
vt 0.875000 0.500000
vt 0.875000 0.750000
vt 0.625000 0.750000
vt 0.625000 0.250000
vt 0.125000 0.750000
vn -1.0000 0.0000 0.0000
vn 0.0000 0.0000 -1.0000
vn 1.0000 0.0000 0.0000
vn 0.0000 0.0000 1.0000
vn 0.0000 -1.0000 0.0000
vn 0.0000 1.0000 0.0000
usemtl Material.006
s off
f 41/71/31 42/72/31 43/73/31
f 43/73/32 48/74/32 47/75/32
f 47/75/33 48/74/33 45/76/33
f 45/76/34 42/77/34 41/78/34
f 43/79/35 47/75/35 45/76/35
f 48/74/36 44/80/36 42/81/36
f 45/76/33 48/74/33 46/82/33
f 42/77/34 45/76/34 46/82/34
f 43/73/31 42/72/31 44/83/31
f 45/76/35 41/84/35 43/79/35
f 48/74/32 43/73/32 44/83/32
f 42/81/36 46/82/36 48/74/36
